<?xml version="1.0" encoding="UTF-8"?>
<svg id="Layer_1" data-name="Layer 1" xmlns="http://www.w3.org/2000/svg" xmlns:xlink="http://www.w3.org/1999/xlink" viewBox="0 0 250 25">
  <defs>
    <style>
      .cls-1 {
        fill: url(#Amethyst);
      }

      .cls-1, .cls-2 {
        stroke-width: 0px;
      }

      .cls-2 {
        fill: url(#Sapphire);
      }
    </style>
    <linearGradient id="Amethyst" x1="0" y1="12.5" x2="250" y2="12.5" gradientUnits="userSpaceOnUse">
      <stop offset="0" stop-color="#7f5793"/>
      <stop offset=".21" stop-color="#805994"/>
      <stop offset=".35" stop-color="#87629a"/>
      <stop offset=".47" stop-color="#9171a3"/>
      <stop offset=".5" stop-color="#9677a7"/>
      <stop offset=".53" stop-color="#8b6a9d"/>
      <stop offset=".6" stop-color="#734e88"/>
      <stop offset=".68" stop-color="#603878"/>
      <stop offset=".76" stop-color="#53286c"/>
      <stop offset=".86" stop-color="#4b1f66"/>
      <stop offset="1" stop-color="#491d64"/>
    </linearGradient>
    <linearGradient id="Sapphire" x1="0" y1="12.5" x2="250" y2="12.5" gradientUnits="userSpaceOnUse">
      <stop offset="0" stop-color="#282882"/>
      <stop offset=".1" stop-color="#292c84"/>
      <stop offset=".2" stop-color="#2f388c"/>
      <stop offset=".3" stop-color="#374d99"/>
      <stop offset=".4" stop-color="#446aac"/>
      <stop offset=".49" stop-color="#5189bf"/>
      <stop offset=".6" stop-color="#3a5b98"/>
      <stop offset=".72" stop-color="#263477"/>
      <stop offset=".83" stop-color="#18175f"/>
      <stop offset=".93" stop-color="#100651"/>
      <stop offset="1" stop-color="#0d004c"/>
    </linearGradient>
  </defs>
  <rect class="cls-1" width="250" height="25" rx="12" ry="12"/>
  <path class="cls-2" d="m238,1c6.07,0,11,4.93,11,11v1c0,6.07-4.93,11-11,11H12c-6.07,0-11-4.93-11-11v-1C1,5.93,5.93,1,12,1h226m0-1H12C5.4,0,0,5.4,0,12v1c0,6.6,5.4,12,12,12h226c6.6,0,12-5.4,12-12v-1c0-6.6-5.4-12-12-12h0Z"/>
</svg>